# xmcd
#
# Track frame offsets:
#	150
#	13371
#	29121
#	53408
#	77322
#	91342
#	108721
#	130669
#	141332
#	155582
#	170189
#	184834
#	201276
#	219229
#	237445
#	253682
#
# Disc length: 3606 seconds
#
# Revision: 0
# Processed by: cddbd v1.5.1PL0 Copyright (c) Steve Scherf et al.
# Submitted via: dBpowerAMP V4.0
#
DISCID=e50e1410
DTITLE=Various Artist - Let's Funk The World
DYEAR=1900
DGENRE=Funk
TTITLE0=Jacques Perry - EVA
TTITLE1=Dave Pike Set - Mathar
TTITLE2=Indian Vibes - Indian Vibes
TTITLE3=The Button Down Brass - Superstition
TTITLE4=Lorenz Alexander - Baltimore Oriole
TTITLE5=First Gear - I Feel The Earth Move
TTITLE6=Juju's - Sweet Song
TTITLE7=Alan Hawkshaw - Teenage Chase
TTITLE8=Johnny Lyttle - Big Wheel
TTITLE9=GP and GF Reverbi - Sequence 36
TTITLE10=Godchild - Chut Bebe Dort
TTITLE11=Starfire - Filigree Funk
TTITLE12=Bombay Palace - Bombay Palace
TTITLE13=Erwin Lehn - Colour
TTITLE14=The Organisation - Smokey Feeling
TTITLE15=Louis Armstrong and Leon Thomas - The Creator Has A Master Plan
EXTD=
EXTT0=
EXTT1=
EXTT2=
EXTT3=
EXTT4=
EXTT5=
EXTT6=
EXTT7=
EXTT8=
EXTT9=
EXTT10=
EXTT11=
EXTT12=
EXTT13=
EXTT14=
EXTT15=
PLAYORDER=
